<?xml version="1.0" encoding="iso-8859-1"?>
<!-- Generator: Adobe Illustrator 19.0.0, SVG Export Plug-In . SVG Version: 6.00 Build 0)  -->
<svg version="1.1" id="Layer_1" xmlns="http://www.w3.org/2000/svg" xmlns:xlink="http://www.w3.org/1999/xlink" x="0px" y="0px"
	 viewBox="0 0 427.561 427.561" style="enable-background:new 0 0 427.561 427.561;" xml:space="preserve">
<g>
	<g>
		<path d="M47.703,151.47l38.569,10.47c0.492,0.133,0.983,0.195,1.469,0.195c2.458,0,4.716-1.638,5.391-4.132
			c0.809-2.98-0.952-6.052-3.932-6.861l-38.569-10.47c-2.97-0.809-6.047,0.952-6.861,3.932
			C42.962,147.589,44.718,150.661,47.703,151.47z"/>
		<path d="M213.78,51.016c2.964-0.148,5.335-2.56,5.325-5.56l-0.133-39.967c-0.01-2.939-2.401-5.243-5.192-5.489
			c-2.79,0.246-5.181,2.55-5.192,5.489l-0.133,39.967C208.445,48.451,210.816,50.862,213.78,51.016z"/>
		<path d="M108.134,106.045c1.05,0.891,2.335,1.321,3.604,1.321c1.597,0,3.174-0.676,4.275-1.981c1.992-2.36,1.7-5.888-0.66-7.88
			L84.823,71.716c-2.371-2.002-5.898-1.69-7.88,0.666c-1.992,2.36-1.7,5.888,0.66,7.88L108.134,106.045z"/>
		<path d="M334.428,158.008c0.676,2.488,2.934,4.132,5.391,4.132c0.486,0,0.978-0.061,1.469-0.195l38.569-10.47
			c2.985-0.809,4.741-3.881,3.932-6.861c-0.814-2.985-3.891-4.741-6.861-3.932l-38.569,10.47
			C335.38,151.956,333.619,155.028,334.428,158.008z"/>
		<path d="M268.554,67.359c0.758,0.348,1.562,0.517,2.345,0.517c2.115,0,4.137-1.203,5.079-3.251l16.768-36.275
			c1.3-2.806,0.077-6.129-2.724-7.424c-2.806-1.3-6.129-0.072-7.424,2.729l-16.768,36.28
			C264.53,62.741,265.754,66.063,268.554,67.359z"/>
		<path d="M315.817,107.366c1.275,0,2.555-0.43,3.604-1.321l30.531-25.789c2.36-1.992,2.652-5.524,0.66-7.88
			c-1.981-2.355-5.509-2.667-7.885-0.666L312.197,97.5c-2.36,1.992-2.657,5.524-0.66,7.88
			C312.648,106.691,314.225,107.366,315.817,107.366z"/>
		<path d="M151.583,64.63c0.947,2.048,2.964,3.251,5.079,3.251c0.783,0,1.582-0.169,2.345-0.517
			c2.801-1.295,4.024-4.623,2.724-7.424l-16.768-36.28c-1.295-2.801-4.613-4.029-7.424-2.729c-2.801,1.295-4.024,4.618-2.724,7.424
			L151.583,64.63z"/>
		<path d="M347.935,288.159l-32.819-22.82c-2.545-1.761-6.026-1.142-7.788,1.398c-1.766,2.534-1.137,6.021,1.398,7.782l32.819,22.82
			c0.978,0.676,2.089,1.003,3.19,1.003c1.771,0,3.512-0.84,4.598-2.401C351.099,293.407,350.469,289.92,347.935,288.159z"/>
		<path d="M213.78,70.313c-58.522,0-105.963,47.442-105.963,105.964c0,57.999,23.619,74.967,47.145,107.889
			c15.503,21.693,15.503,46.188,15.503,46.188v50.12h86.605v-50.12h0.026c0,0-0.026-24.499,15.503-46.188
			c23.557-32.901,47.145-49.889,47.145-107.889C319.744,117.755,272.302,70.313,213.78,70.313z M224.174,281.359h-20.91v-43.264
			c0-7.306-2.519-15.032-4.961-22.508c-2.903-8.888-5.898-18.079-2.708-22.477c2.319-3.2,8.612-4.89,18.186-4.89
			c9.6,0,15.882,1.669,18.166,4.823c3.098,4.28,0.118,13.333-2.765,22.088c-2.493,7.588-5.074,15.437-5.074,22.958
			C224.107,247.465,224.138,264.474,224.174,281.359z M262.4,276.864c-10.496,14.659-14.822,30.362-16.604,40.95h-2.319v-19.671
			c0-6.938-4.214-12.892-10.225-15.447c-0.036-17.316-0.072-34.98-0.072-44.6c0-6.067,2.35-13.215,4.623-20.122
			c3.594-10.921,7.306-22.216,1.49-30.249c-4.234-5.852-12.344-8.581-25.518-8.581c-13.148,0-21.258,2.744-25.533,8.632
			c-5.903,8.141-2.176,19.574,1.428,30.623c2.222,6.805,4.516,13.834,4.516,19.697v44.662c-5.944,2.581-10.107,8.494-10.107,15.386
			v19.671h-2.325c-1.787-10.578-6.113-26.281-16.589-40.94c-4.5-6.298-8.929-11.935-13.21-17.388
			c-18.345-23.357-31.596-40.233-31.596-83.205c0-51.512,41.907-93.42,93.42-93.42c51.512,0,93.419,41.907,93.419,93.42
			c0,43.023-13.271,59.909-31.642,83.287C271.293,264.991,266.885,270.602,262.4,276.864z"/>
		<path d="M378.783,217.631l-39.383-6.81c-3.036-0.527-5.944,1.516-6.467,4.557c-0.522,3.041,1.516,5.939,4.557,6.467l39.383,6.81
			c0.323,0.056,0.645,0.087,0.963,0.087c2.673,0,5.038-1.925,5.504-4.644C383.862,221.051,381.824,218.158,378.783,217.631z"/>
		<path d="M213.78,427.561c11.704,0,21.197-9.492,21.197-21.197h-42.394C192.584,418.074,202.076,427.561,213.78,427.561z"/>
		<path d="M112.445,265.339l-32.819,22.815c-2.534,1.766-3.164,5.248-1.398,7.782c1.085,1.567,2.831,2.401,4.598,2.401
			c1.106,0,2.212-0.328,3.19-1.003l32.819-22.82c2.534-1.761,3.164-5.248,1.398-7.782
			C118.472,264.197,114.99,263.583,112.445,265.339z"/>
		<path d="M94.628,215.378c-0.522-3.041-3.43-5.084-6.467-4.557l-39.383,6.81c-3.041,0.527-5.079,3.42-4.557,6.467
			c0.471,2.719,2.836,4.644,5.504,4.644c0.317,0,0.64-0.026,0.963-0.087l39.383-6.81C93.117,221.312,95.155,218.419,94.628,215.378z
			"/>
	</g>
</g>
<g>
</g>
<g>
</g>
<g>
</g>
<g>
</g>
<g>
</g>
<g>
</g>
<g>
</g>
<g>
</g>
<g>
</g>
<g>
</g>
<g>
</g>
<g>
</g>
<g>
</g>
<g>
</g>
<g>
</g>
</svg>
